<svg width="215" height="58" viewBox="0 0 215 58" fill="none" xmlns="http://www.w3.org/2000/svg">
<g clip-path="url(#clip0_450_3715)">
<path fill-rule="evenodd" clip-rule="evenodd" d="M-0.0279064 6.25397C-0.10292 5.69566 0.288872 5.18225 0.847185 5.10723L40.9469 -0.28047C41.5052 -0.355484 42.0186 0.0363083 42.0936 0.594622L44.3403 17.3167H20.6193C20.056 17.3167 19.5993 17.7734 19.5993 18.3367V25.4581L3.86551 27.572C3.30719 27.6471 2.79378 27.2553 2.71877 26.6969L-0.0279064 6.25397ZM19.5993 32.6668V25.4581L43.9652 22.1843C44.5235 22.1093 44.9153 21.5959 44.8403 21.0376L44.3403 17.3167H61.0793C61.6426 17.3167 62.0993 17.7734 62.0993 18.3367V38.9634C62.0993 39.5267 61.6426 39.9834 61.0793 39.9834H53.066L53.3441 36.1166C53.3845 35.5547 52.9618 35.0664 52.3999 35.026L19.5993 32.6668ZM19.5993 32.6668V38.9634C19.5993 39.5267 20.056 39.9834 20.6193 39.9834H53.066L51.8643 56.6901C51.8239 57.252 51.3357 57.6747 50.7738 57.6343L10.418 54.7316C9.85616 54.6912 9.43343 54.2029 9.47385 53.641L10.9536 33.0675C10.9941 32.5056 11.4823 32.0829 12.0442 32.1233L19.5993 32.6668Z" fill="#005FF9"/>
<path d="M78.0229 23.1111V5.86108H83.3819C88.7639 5.86108 92.0989 9.70208 92.0989 14.4171C92.0989 19.2011 88.7639 23.1111 83.3819 23.1111H78.0229ZM80.5529 21.0411H83.3129C87.1309 21.0411 89.5689 18.0741 89.5689 14.4171C89.5689 10.8521 87.1309 7.93108 83.3129 7.93108H80.5529V21.0411ZM100.147 23.3411C96.2137 23.3411 94.1897 20.8571 94.1897 17.3381C94.1897 14.0491 96.1907 11.3811 99.8707 11.3811C103.574 11.3811 105.138 13.5431 105.138 16.4411C105.138 17.1541 105.046 17.6831 105.046 17.6831H96.4897C96.6047 19.9371 97.8237 21.3631 100.147 21.3631C102.769 21.3631 103.413 19.9601 103.413 19.9601H104.908V21.4551C104.908 21.4551 103.758 23.3411 100.147 23.3411ZM96.6047 15.9581H102.884C102.884 14.4631 101.918 13.3361 99.8937 13.3361C97.8237 13.3361 96.9267 14.4401 96.6047 15.9581ZM112.857 23.1111H111.362L106.555 13.2211V11.6111H108.165L112.167 20.0061L116.192 11.6111H117.687V13.1061L112.857 23.1111ZM124.944 23.3411C121.011 23.3411 118.987 20.8571 118.987 17.3381C118.987 14.0491 120.988 11.3811 124.668 11.3811C128.371 11.3811 129.935 13.5431 129.935 16.4411C129.935 17.1541 129.843 17.6831 129.843 17.6831H121.287C121.402 19.9371 122.621 21.3631 124.944 21.3631C127.566 21.3631 128.21 19.9601 128.21 19.9601H129.705V21.4551C129.705 21.4551 128.555 23.3411 124.944 23.3411ZM121.402 15.9581H127.681C127.681 14.4631 126.715 13.3361 124.691 13.3361C122.621 13.3361 121.724 14.4401 121.402 15.9581ZM131.81 23.1111V21.6161L135.559 17.2691L131.879 13.2211V11.6111H133.489L136.985 15.8431L140.458 11.6111H141.953V13.1061L138.25 17.3151L142.022 21.5011V23.1111H140.412L136.824 18.7641L133.305 23.1111H131.81ZM144.653 28.8611V11.6111H146.723L146.93 13.4281C147.804 12.1631 149.184 11.3811 150.955 11.3811C154.336 11.3811 156.337 14.0491 156.337 17.3381C156.337 20.6271 154.336 23.3411 150.955 23.3411C149.184 23.3411 147.827 22.5591 146.953 21.3171V28.8611H144.653ZM150.495 21.3861C152.91 21.3861 154.037 19.5691 154.037 17.3381C154.037 15.1301 152.91 13.3361 150.495 13.3361C148.31 13.3361 146.953 15.1301 146.953 17.3381C146.953 19.5691 148.31 21.3861 150.495 21.3861ZM164.318 23.3411C160.385 23.3411 158.361 20.8571 158.361 17.3381C158.361 14.0491 160.362 11.3811 164.042 11.3811C167.745 11.3811 169.309 13.5431 169.309 16.4411C169.309 17.1541 169.217 17.6831 169.217 17.6831H160.661C160.776 19.9371 161.995 21.3631 164.318 21.3631C166.94 21.3631 167.584 19.9601 167.584 19.9601H169.079V21.4551C169.079 21.4551 167.929 23.3411 164.318 23.3411ZM160.776 15.9581H167.055C167.055 14.4631 166.089 13.3361 164.065 13.3361C161.995 13.3361 161.098 14.4401 160.776 15.9581ZM172.056 23.1111V11.6111H174.126L174.287 13.1291C174.908 12.0941 175.966 11.3811 177.553 11.3811C179.232 11.3811 180.175 12.2551 180.405 13.1981V14.6931H178.91C178.887 14.6931 178.634 13.3131 176.84 13.3131C175.184 13.3131 174.356 14.6471 174.356 16.4411V23.1111H172.056ZM187.172 23.3411C184.412 23.3411 183.009 21.9151 183.009 19.2471V13.5661H181.146V11.6111H183.101L183.239 8.73608H185.309V11.6111H189.817V13.5661H185.309V19.0171C185.309 20.4661 185.792 21.3861 187.195 21.3861C188.667 21.3861 188.782 20.3051 188.782 20.3051H190.277V21.8001C189.909 22.3981 189.081 23.3411 187.172 23.3411ZM196.226 23.3411C192.615 23.3411 191.626 21.3171 191.626 21.3171V19.8221H193.121C193.121 19.8221 193.88 21.3861 196.203 21.3861C197.859 21.3861 198.388 20.8111 198.388 19.9831C198.388 18.9021 197.261 18.6721 195.927 18.3731L194.662 18.0971C193.19 17.7751 191.856 16.9011 191.856 14.8541C191.856 13.0601 193.259 11.3811 195.95 11.3811C198.411 11.3811 199.492 12.3471 199.975 13.2211V14.7161H198.48C198.48 14.7161 197.951 13.3361 195.973 13.3361C194.547 13.3361 194.018 13.9571 194.018 14.7391C194.018 15.5671 194.846 15.9811 195.95 16.2341L197.169 16.5101C198.825 16.8781 200.55 17.5681 200.55 19.7071C200.55 21.7311 199.124 23.3411 196.226 23.3411ZM81.7949 50.1111V34.9311H76.2749V32.8611H89.8449V34.9311H84.3249V50.1111H81.7949ZM91.9823 50.1111V38.6111H94.2823V50.1111H91.9823ZM91.8673 36.0811V33.5511H94.3973V36.0811H91.8673ZM97.6874 50.1111V38.6111H99.7574L99.9184 40.0831C100.424 39.3011 101.39 38.3811 102.977 38.3811C104.679 38.3811 105.737 39.1171 106.335 40.2671C106.91 39.3701 107.991 38.3811 109.877 38.3811C112.706 38.3811 113.787 40.4741 113.787 43.0041V50.1111H111.487V43.1421C111.487 41.4631 110.889 40.3131 109.348 40.3131C107.508 40.3131 106.887 41.7391 106.887 42.9581V50.1111H104.587V43.0961C104.587 41.4401 103.989 40.3131 102.448 40.3131C100.585 40.3131 99.9874 41.8771 99.9874 43.3491V50.1111H97.6874ZM122.338 50.3411C118.405 50.3411 116.381 47.8571 116.381 44.3381C116.381 41.0491 118.382 38.3811 122.062 38.3811C125.765 38.3811 127.329 40.5431 127.329 43.4411C127.329 44.1541 127.237 44.6831 127.237 44.6831H118.681C118.796 46.9371 120.015 48.3631 122.338 48.3631C124.96 48.3631 125.604 46.9601 125.604 46.9601H127.099V48.4551C127.099 48.4551 125.949 50.3411 122.338 50.3411ZM118.796 42.9581H125.075C125.075 41.4631 124.109 40.3361 122.085 40.3361C120.015 40.3361 119.118 41.4401 118.796 42.9581ZM139.52 50.1111V34.9311H134V32.8611H147.57V34.9311H142.05V50.1111H139.52ZM147.573 50.1111V38.6111H149.643L149.804 40.1291C150.425 39.0941 151.483 38.3811 153.07 38.3811C154.749 38.3811 155.692 39.2551 155.922 40.1981V41.6931H154.427C154.404 41.6931 154.151 40.3131 152.357 40.3131C150.701 40.3131 149.873 41.6471 149.873 43.4411V50.1111H147.573ZM160.717 50.3411C158.141 50.3411 156.83 48.7541 156.83 46.7761C156.83 44.8211 158.164 43.3491 161.476 43.3491C162.925 43.3491 164.098 43.6711 164.098 43.6711V42.9581C164.098 41.2331 163.385 40.3361 161.614 40.3361C159.705 40.3361 159.015 41.7391 159.015 41.7391H157.52V40.2441C157.52 40.2441 158.601 38.3811 161.683 38.3811C164.765 38.3811 166.398 39.9681 166.398 43.0041V50.1111H164.558L164.282 48.4551C163.707 49.2831 162.603 50.3411 160.717 50.3411ZM161.085 48.4781C162.971 48.4781 164.098 47.0981 164.098 46.0171V45.4191C164.098 45.4191 163.017 45.0971 161.476 45.0971C159.613 45.0971 159.084 45.9251 159.084 46.7761C159.084 47.9491 159.774 48.4781 161.085 48.4781ZM174.826 50.3411C170.916 50.3411 168.984 47.6271 168.984 44.3381C168.984 41.0491 171.146 38.3581 174.826 38.3581C178.437 38.3581 179.219 40.4741 179.219 40.4741V41.9691H177.724C177.724 41.9691 177.264 40.3131 174.826 40.3131C172.411 40.3131 171.284 42.1301 171.284 44.3381C171.284 46.5691 172.411 48.3861 174.826 48.3861C177.379 48.3861 177.747 46.7301 177.747 46.7301H179.242V48.2251C179.242 48.2251 178.414 50.3411 174.826 50.3411ZM181.961 50.1111V32.8611H184.261V43.7861L189.413 38.6111H190.908V40.1061L186.883 44.0391L191.368 48.5011V50.1111H189.758L184.261 44.5221V50.1111H181.961ZM198.728 50.3411C194.795 50.3411 192.771 47.8571 192.771 44.3381C192.771 41.0491 194.772 38.3811 198.452 38.3811C202.155 38.3811 203.719 40.5431 203.719 43.4411C203.719 44.1541 203.627 44.6831 203.627 44.6831H195.071C195.186 46.9371 196.405 48.3631 198.728 48.3631C201.35 48.3631 201.994 46.9601 201.994 46.9601H203.489V48.4551C203.489 48.4551 202.339 50.3411 198.728 50.3411ZM195.186 42.9581H201.465C201.465 41.4631 200.499 40.3361 198.475 40.3361C196.405 40.3361 195.508 41.4401 195.186 42.9581ZM206.466 50.1111V38.6111H208.536L208.697 40.1291C209.318 39.0941 210.376 38.3811 211.963 38.3811C213.642 38.3811 214.585 39.2551 214.815 40.1981V41.6931H213.32C213.297 41.6931 213.044 40.3131 211.25 40.3131C209.594 40.3131 208.766 41.6471 208.766 43.4411V50.1111H206.466Z" fill="#EAEBEF"/>
</g>
<defs>
<clipPath id="clip0_450_3715">
<rect width="215" height="58" fill="white"/>
</clipPath>
</defs>
</svg>
